<svg class="svg-icon" style="width: 1em; height: 1em;vertical-align: middle;fill: currentColor;overflow: hidden;" viewBox="0 0 1024 1024" version="1.1" xmlns="http://www.w3.org/2000/svg"><path d="M896 170.666667a55.893333 55.893333 0 0 0-2.56-11.52v-3.84a42.666667 42.666667 0 0 0-8.533333-12.8 42.666667 42.666667 0 0 0-12.373334-8.106667h-3.84a36.693333 36.693333 0 0 0-13.226666-6.4H853.333333a42.666667 42.666667 0 0 0-12.8 0l-768 256a42.666667 42.666667 0 0 0 0 81.066667l363.946667 121.173333 121.173333 363.946667a42.666667 42.666667 0 0 0 81.066667 0l256-768A42.666667 42.666667 0 0 0 896 170.666667z m-200.533333 97.706666l-237.653334 237.653334L220.16 426.666667zM597.333333 803.84l-79.36-237.653333 237.653334-237.653334z"  /></svg>